<svg xmlns="http://www.w3.org/2000/svg" xmlns:xlink="http://www.w3.org/1999/xlink" xmlns:lucid="lucid" width="1260" height="740"><g transform="translate(-80 -180)" lucid:page-tab-id="0_0"><path d="M0 0h1870.4v1323.2H0z" fill="#fff"/><path d="M100 240v-40h960v40M100 240v660h960V240" stroke="#000" stroke-width="4" fill="#fff"/><path d="M100 240h960" stroke="#000" stroke-width="4" fill="none"/><path stroke="#000" stroke-width="4" fill="none"/><use xlink:href="#a" transform="matrix(1,0,0,1,100,200) translate(442.3 23.6)"/><use xlink:href="#b" transform="matrix(1,0,0,1,100,200) translate(504.75 23.6)"/><path d="M140 320v-40h620v40M140 320v540h620V320" stroke="#000" stroke-width="4" fill="#a3d977"/><path d="M140 320h620" stroke="#000" stroke-width="4" fill="none"/><path stroke="#000" stroke-width="4" fill="none"/><use xlink:href="#a" transform="matrix(1,0,0,1,140,280) translate(272.3 23.6)"/><use xlink:href="#c" transform="matrix(1,0,0,1,140,280) translate(334.75 23.6)"/><path d="M170.7 400v-40h300v40M170.7 400v240h300V400" stroke="#000" stroke-width="4" fill="#fff"/><path d="M170.7 400h300" stroke="#000" stroke-width="4" fill="none"/><path stroke="#000" stroke-width="4" fill="none"/><use xlink:href="#a" transform="matrix(1,0,0,1,170.70866141732284,360) translate(112.3 23.6)"/><use xlink:href="#d" transform="matrix(1,0,0,1,170.70866141732284,360) translate(174.75 23.6)"/><path d="M629.3 420h100v80h-100z" stroke="#3aa6dd" stroke-width="2" fill="#99d2f2"/><use xlink:href="#e" transform="matrix(1,0,0,1,634.2913385826771,425) translate(6.25 38.4625)"/><path d="M629.3 520h100v80h-100z" stroke="#3aa6dd" stroke-width="2" fill="#99d2f2"/><use xlink:href="#e" transform="matrix(1,0,0,1,634.2913385826771,525) translate(6.25 38.4625)"/><path d="M510.7 520h100v80h-100z" stroke="#c92d39" stroke-width="2" fill="#ff8f80"/><use xlink:href="#f" transform="matrix(1,0,0,1,515.7086614173229,525) translate(17.225 27.525)"/><use xlink:href="#g" transform="matrix(1,0,0,1,515.7086614173229,525) translate(9.074999999999996 49.125)"/><path d="M332.85 420h100v80h-100z" stroke="#000" stroke-width="2" fill="#fff"/><use xlink:href="#e" transform="matrix(1,0,0,1,337.85433070866134,425) translate(6.25 38.4625)"/><path d="M208.56 420h100v80h-100z" stroke="#c92d39" stroke-width="2" fill="#ff8f80"/><use xlink:href="#f" transform="matrix(1,0,0,1,213.5629921259843,425) translate(17.225 27.525)"/><use xlink:href="#g" transform="matrix(1,0,0,1,213.5629921259843,425) translate(9.074999999999996 49.125)"/><path d="M332.85 520h100v80h-100z" stroke="#000" stroke-width="2" fill="#fff"/><use xlink:href="#e" transform="matrix(1,0,0,1,337.85433070866134,525) translate(6.25 38.4625)"/><path d="M208.56 520h100v80h-100z" stroke="#c92d39" stroke-width="2" fill="#ff8f80"/><use xlink:href="#f" transform="matrix(1,0,0,1,213.5629921259843,525) translate(17.225 27.525)"/><use xlink:href="#g" transform="matrix(1,0,0,1,213.5629921259843,525) translate(9.074999999999996 49.125)"/><path d="M918.58 420h100v80h-100z" stroke="#3aa6dd" stroke-width="2" fill="#99d2f2"/><use xlink:href="#e" transform="matrix(1,0,0,1,923.5826771653543,425) translate(6.25 38.4625)"/><path d="M800 420h100v80H800z" stroke="#000" stroke-width="2" fill="#fff"/><use xlink:href="#f" transform="matrix(1,0,0,1,805,425) translate(17.225 27.525)"/><use xlink:href="#g" transform="matrix(1,0,0,1,805,425) translate(9.074999999999996 49.125)"/><path d="M918.58 520h100v80h-100z" stroke="#3aa6dd" stroke-width="2" fill="#99d2f2"/><use xlink:href="#e" transform="matrix(1,0,0,1,923.5826771653543,525) translate(6.25 38.4625)"/><path d="M800 520h100v80H800z" stroke="#000" stroke-width="2" fill="#fff"/><use xlink:href="#f" transform="matrix(1,0,0,1,805,525) translate(17.225 27.525)"/><use xlink:href="#g" transform="matrix(1,0,0,1,805,525) translate(9.074999999999996 49.125)"/><path d="M1140 240v-40h180v40M1140 240v300h180V240" stroke="#000" stroke-width="4" fill="#a3d977"/><path d="M1140 240h180" stroke="#000" stroke-width="4" fill="none"/><path stroke="#000" stroke-width="4" fill="none"/><use xlink:href="#a" transform="matrix(1,0,0,1,1140,200) translate(52.3 23.6)"/><use xlink:href="#c" transform="matrix(1,0,0,1,1140,200) translate(114.75 23.6)"/><path d="M510.7 420h100v80h-100z" stroke="#c92d39" stroke-width="2" fill="#ff8f80"/><use xlink:href="#f" transform="matrix(1,0,0,1,515.7086614173229,424.99999999999994) translate(17.225 27.525)"/><use xlink:href="#g" transform="matrix(1,0,0,1,515.7086614173229,424.99999999999994) translate(9.074999999999996 49.125)"/><path d="M1249.75 359.75c0 10.9-8.84 19.75-19.75 19.75-10.9 0-19.75-8.84-19.75-19.75 0-10.9 8.84-19.75 19.75-19.75 10.9 0 19.75 8.84 19.75 19.75z" stroke="#000" stroke-width="2" fill="#fff"/><path d="M1230 379.5v55.3l40 63.2m-40-63.2l-40 63.2m0-98.75h80" stroke="#000" stroke-width="2" fill="none"/><path d="M1190 340h80v180h-80z" fill="none"/><path d="M170.7 700v-40h300v40M170.7 700v120h300V700" stroke="#000" stroke-width="4" fill="#fff"/><path d="M170.7 700h300" stroke="#000" stroke-width="4" fill="none"/><path stroke="#000" stroke-width="4" fill="none"/><g><use xlink:href="#a" transform="matrix(1,0,0,1,170.70866141732284,660) translate(112.3 23.6)"/><use xlink:href="#h" transform="matrix(1,0,0,1,170.70866141732284,660) translate(174.75 23.6)"/></g><path d="M332.85 720h100v80h-100z" stroke="#000" stroke-width="2" fill="#fff"/><g><use xlink:href="#e" transform="matrix(1,0,0,1,337.85433070866134,725) translate(6.25 38.4625)"/></g><path d="M208.56 720h100v80h-100z" stroke="#c92d39" stroke-width="2" fill="#ff8f80"/><g><use xlink:href="#f" transform="matrix(1,0,0,1,213.5629921259843,725) translate(17.225 27.525)"/><use xlink:href="#g" transform="matrix(1,0,0,1,213.5629921259843,725) translate(9.074999999999996 49.125)"/></g><path d="M1240 260h60v40h-60z" stroke="#3aa6dd" stroke-width="2" fill="#99d2f2"/><path d="M1160 260h60v40h-60z" stroke="#c92d39" stroke-width="2" fill="#ff8f80"/><defs><path d="M136-208V0H84v-208H4v-40h212v40h-80" id="i"/><path d="M185-48c-13 30-37 53-82 52C43 2 14-33 14-96s30-98 90-98c62 0 83 45 84 108H66c0 31 8 55 39 56 18 0 30-7 34-22zm-45-69c5-46-57-63-70-21-2 6-4 13-4 21h74" id="j"/><path d="M135-194c87-1 58 113 63 194h-50c-7-57 23-157-34-157-59 0-34 97-39 157H25l-1-190h47c2 12-1 28 3 38 12-26 28-41 61-42" id="k"/><path d="M133-34C117-15 103 5 69 4 32 3 11-16 11-54c-1-60 55-63 116-61 1-26-3-47-28-47-18 1-26 9-28 27l-52-2c7-38 36-58 82-57s74 22 75 68l1 82c-1 14 12 18 25 15v27c-30 8-71 5-69-32zm-48 3c29 0 43-24 42-57-32 0-66-3-65 30 0 17 8 27 23 27" id="l"/><path d="M115-3C79 11 28 4 28-45v-112H4v-33h27l15-45h31v45h36v33H77v99c-1 23 16 31 38 25v30" id="m"/><g id="a"><use transform="matrix(0.05,0,0,0.05,0,0)" xlink:href="#i"/><use transform="matrix(0.05,0,0,0.05,9.600000000000001,0)" xlink:href="#j"/><use transform="matrix(0.05,0,0,0.05,19.6,0)" xlink:href="#k"/><use transform="matrix(0.05,0,0,0.05,30.55,0)" xlink:href="#l"/><use transform="matrix(0.05,0,0,0.05,40.550000000000004,0)" xlink:href="#k"/><use transform="matrix(0.05,0,0,0.05,51.5,0)" xlink:href="#m"/></g><path d="M199 0l-22-63H83L61 0H9l90-248h61L250 0h-51zm-33-102l-36-108c-10 38-24 72-36 108h72" id="n"/><use transform="matrix(0.05,0,0,0.05,0,0)" xlink:href="#n" id="b"/><path d="M182-130c37 4 62 22 62 59C244 23 116-4 24 0v-248c84 5 203-23 205 63 0 31-19 50-47 55zM76-148c40-3 101 13 101-30 0-44-60-28-101-31v61zm0 110c48-3 116 14 116-37 0-48-69-32-116-35v72" id="o"/><use transform="matrix(0.05,0,0,0.05,0,0)" xlink:href="#o" id="c"/><path d="M67-125c0 53 21 87 73 88 37 1 54-22 65-47l45 17C233-25 199 4 140 4 58 4 20-42 15-125 8-235 124-281 211-232c18 10 29 29 36 50l-46 12c-8-25-30-41-62-41-52 0-71 34-72 86" id="p"/><use transform="matrix(0.05,0,0,0.05,0,0)" xlink:href="#p" id="d"/><path d="M220-157c-53 9-28 100-34 157h-49v-107c1-27-5-49-29-50C55-147 81-57 75 0H25l-1-190h47c2 12-1 28 3 38 10-53 101-56 108 0 13-22 24-43 59-42 82 1 51 116 57 194h-49v-107c-1-25-5-48-29-50" id="q"/><path d="M135-194c53 0 70 44 70 98 0 56-19 98-73 100-31 1-45-17-59-34 3 33 2 69 2 105H25l-1-265h48c2 10 0 23 3 31 11-24 29-35 60-35zM114-30c33 0 39-31 40-66 0-38-9-64-40-64-56 0-55 130 0 130" id="r"/><path d="M25 0v-261h50V0H25" id="s"/><g id="e"><use transform="matrix(0.05,0,0,0.05,0,0)" xlink:href="#i"/><use transform="matrix(0.05,0,0,0.05,9.600000000000001,0)" xlink:href="#j"/><use transform="matrix(0.05,0,0,0.05,19.6,0)" xlink:href="#q"/><use transform="matrix(0.05,0,0,0.05,35.6,0)" xlink:href="#r"/><use transform="matrix(0.05,0,0,0.05,46.550000000000004,0)" xlink:href="#s"/><use transform="matrix(0.05,0,0,0.05,51.550000000000004,0)" xlink:href="#l"/><use transform="matrix(0.05,0,0,0.05,61.550000000000004,0)" xlink:href="#m"/><use transform="matrix(0.05,0,0,0.05,67.5,0)" xlink:href="#j"/></g><path d="M147 0H94L2-248h55l64 206c17-72 42-137 63-206h54" id="t"/><path d="M25-224v-37h50v37H25zM25 0v-190h50V0H25" id="u"/><path d="M135-150c-39-12-60 13-60 57V0H25l-1-190h47c2 13-1 29 3 40 6-28 27-53 61-41v41" id="v"/><path d="M85 4C-2 5 27-109 22-190h50c7 57-23 150 33 157 60-5 35-97 40-157h50l1 190h-47c-2-12 1-28-3-38-12 25-28 42-61 42" id="w"/><g id="f"><use transform="matrix(0.05,0,0,0.05,0,0)" xlink:href="#t"/><use transform="matrix(0.05,0,0,0.05,11.65,0)" xlink:href="#u"/><use transform="matrix(0.05,0,0,0.05,16.65,0)" xlink:href="#v"/><use transform="matrix(0.05,0,0,0.05,23.65,0)" xlink:href="#m"/><use transform="matrix(0.05,0,0,0.05,29.599999999999994,0)" xlink:href="#w"/><use transform="matrix(0.05,0,0,0.05,40.55,0)" xlink:href="#l"/><use transform="matrix(0.05,0,0,0.05,50.55,0)" xlink:href="#s"/></g><path d="M230 0l2-204L168 0h-37L68-204 70 0H24v-248h70l56 185 57-185h69V0h-46" id="x"/><path d="M190-63c-7 42-38 67-86 67-59 0-84-38-90-98-12-110 154-137 174-36l-49 2c-2-19-15-32-35-32-30 0-35 28-38 64-6 74 65 87 74 30" id="y"/><path d="M114-157C55-157 80-60 75 0H25v-261h50l-1 109c12-26 28-41 61-42 86-1 58 113 63 194h-50c-7-57 23-157-34-157" id="z"/><g id="g"><use transform="matrix(0.05,0,0,0.05,0,0)" xlink:href="#x"/><use transform="matrix(0.05,0,0,0.05,14.950000000000001,0)" xlink:href="#l"/><use transform="matrix(0.05,0,0,0.05,24.950000000000003,0)" xlink:href="#y"/><use transform="matrix(0.05,0,0,0.05,34.95,0)" xlink:href="#z"/><use transform="matrix(0.05,0,0,0.05,45.900000000000006,0)" xlink:href="#u"/><use transform="matrix(0.05,0,0,0.05,50.900000000000006,0)" xlink:href="#k"/><use transform="matrix(0.05,0,0,0.05,61.85,0)" xlink:href="#j"/></g><path d="M24-248c120-7 223 5 221 122C244-46 201 0 124 0H24v-248zM76-40c74 7 117-18 117-86 0-67-45-88-117-82v168" id="A"/><use transform="matrix(0.05,0,0,0.05,0,0)" xlink:href="#A" id="h"/></defs></g></svg>